# xmcd
#
# Track frame offsets: 
#        150
#        12962
#        26578
#        37346
#        49833
#        62721
#        74269
#        85779
#        97128
#        109625
#        123304
#        134860
#        148403
#        161371
#        175631
#        188804
#        201438
#        215551
#        227704
#        242557
#        254702
#        265797
#        266273
#        270973
#        282726
#        294417
#        306858
#
# Disc length: 4239 seconds
#
# Revision: 2
# Processed by: cddbd v1.5.2PL0 Copyright (c) Steve Scherf et al.
# Submitted via: ExactAudioCopy v1.1
#
DISCID=a2108d1b
DTITLE=Screamin' Jay Hawkins - The Whamee 1953-1955
DYEAR=2006
DGENRE=R&B
TTITLE0=I Put A Spell On You (1955) (mono)
TTITLE1=(She Put The) Wamee (On Me) (mono)
TTITLE2=What That Is (mono)
TTITLE3=In My Front Room (mono)
TTITLE4=This Is All (mono)
TTITLE5=You're All Of My Life To Me (mono)
TTITLE6=Well I Tried (mono)
TTITLE7=Talk About Me (mono)
TTITLE8=Even Though (mono)
TTITLE9=Not Anymore (mono)
TTITLE10=Baptize Me In Wine (mono)
TTITLE11=Coronation Jump (inst) (mono)
TTITLE12=Why Did You Waste My Time? (mono)
TTITLE13=No Hug, No Kiss (mono)
TTITLE14=Tiny's Jump (Coronation Jump alt 1) (inst) (mono)
TTITLE15=Why Did You Waste My Time? (alt) (mono)
TTITLE16=Tiny's Jump (Coronation Jump alt 2) (inst) (mono)
TTITLE17=I Found My Way To Wine (mono)
TTITLE18=Please Try To Understand (mono)
TTITLE19=$10,000 Lincoln Continental (mono)
TTITLE20=Take Me Back (mono)
TTITLE21=I Is (false start 1) (mono)
TTITLE22=I Is (false start 2) (mono)
TTITLE23=I Is (mono)
TTITLE24=Pauline (mono)
TTITLE25=$10,000 Lincoln Continental (alt) (mono)
TTITLE26=Mumbles Blues (mono)
EXTD=
EXTT0=
EXTT1=
EXTT2=
EXTT3=
EXTT4=
EXTT5=
EXTT6=
EXTT7=
EXTT8=
EXTT9=
EXTT10=
EXTT11=
EXTT12=
EXTT13=
EXTT14=
EXTT15=
EXTT16=
EXTT17=
EXTT18=
EXTT19=
EXTT20=
EXTT21=
EXTT22=
EXTT23=
EXTT24=
EXTT25=
EXTT26=
PLAYORDER=
